<?xml version="1.0" standalone="no"?>
<!DOCTYPE svg PUBLIC "-//W3C//DTD SVG 20010904//EN"
 "http://www.w3.org/TR/2001/REC-SVG-20010904/DTD/svg10.dtd">
<svg version="1.0" xmlns="http://www.w3.org/2000/svg"
 width="4534.000000pt" height="3053.000000pt" viewBox="0 0 4534.000000 3053.000000"
 preserveAspectRatio="xMidYMid meet">

<g transform="translate(0.000000,3053.000000) scale(0.100000,-0.100000)"
fill="#000000" stroke="none">
<path d="M25995 28693 c-93 -30 -173 -58 -177 -61 -4 -4 -68 -325 -143 -714
l-136 -707 35 -108 c19 -59 39 -109 44 -111 6 -2 166 47 357 109 191 61 350
107 354 103 4 -5 36 -99 71 -209 35 -110 66 -204 70 -208 6 -7 300 78 300 86
0 1 -31 98 -70 216 -38 118 -67 218 -65 221 2 4 54 22 115 40 74 23 109 38
106 46 -3 7 -19 59 -37 116 -18 57 -34 105 -35 107 -2 1 -53 -14 -114 -34 -61
-20 -113 -35 -116 -33 -2 3 -90 272 -195 599 -105 327 -192 595 -192 596 -1 0
-78 -24 -172 -54z m130 -792 c80 -249 144 -455 143 -456 -2 -1 -109 -36 -238
-78 -159 -51 -236 -71 -238 -63 -2 10 156 954 175 1041 3 17 7 26 9 20 2 -5
69 -214 149 -464z"/>
<path d="M29210 28439 c-610 -28 -1248 -103 -1850 -215 -219 -41 -223 -42
-217 -59 3 -7 9 -33 12 -59 6 -40 5 -46 -10 -46 -13 0 -16 -6 -12 -22 3 -13
40 -196 82 -408 42 -212 78 -386 78 -387 1 0 47 8 102 18 377 73 877 142 1280
178 440 40 600 46 1175 46 575 0 735 -6 1175 -46 1407 -125 2762 -475 4052
-1044 415 -184 958 -463 1339 -690 69 -41 130 -75 134 -75 8 0 422 674 428
696 3 12 -214 147 -390 243 -43 24 -78 46 -78 50 0 4 5 12 12 19 6 6 10 13 7
16 -20 19 -482 266 -709 380 -1691 849 -3481 1315 -5400 1406 -243 11 -961 11
-1210 -1z"/>
<path d="M38279 26583 c-1009 -971 -2007 -1933 -2218 -2137 l-383 -370 -37 21
c-20 11 -108 64 -196 118 -2131 1304 -4717 1823 -7235 1454 -2897 -425 -5497
-2007 -7201 -4380 -1055 -1470 -1705 -3164 -1909 -4969 -47 -421 -54 -580 -54
-1160 0 -580 7 -739 54 -1160 176 -1559 689 -3047 1507 -4367 l95 -153 -222
-236 c-121 -130 -219 -240 -218 -245 2 -4 53 -54 113 -110 61 -56 145 -135
187 -176 l77 -73 -223 -222 c-227 -228 -365 -390 -519 -610 -423 -607 -711
-1353 -777 -2007 -30 -303 13 -553 124 -720 74 -110 176 -177 343 -223 67 -19
105 -22 273 -22 169 0 216 3 350 27 579 102 1181 352 1763 733 321 210 722
550 927 788 36 41 67 75 70 75 3 1 104 -91 225 -204 121 -113 223 -205 226
-205 3 0 64 62 134 138 71 75 141 150 155 165 l27 28 144 -94 c2822 -1850
6443 -2264 9644 -1102 1744 633 3278 1692 4501 3106 1328 1535 2197 3471 2464
5488 63 480 85 830 85 1381 0 470 -8 639 -45 1026 -184 1883 -883 3703 -2006
5217 l-102 138 -6 132 c-3 73 -10 850 -16 1727 -6 877 -13 1872 -17 2210 l-6
615 698 755 c384 415 805 869 934 1009 l236 254 -60 53 c-33 30 -63 54 -66 54
-4 0 -832 -795 -1840 -1767z m-96 -373 c-62 -59 -613 -588 -686 -659 -68 -65
-78 -72 -75 -50 5 38 782 786 786 757 2 -13 -7 -31 -25 -48z m-175 -563 c-134
-130 -313 -305 -399 -387 l-156 -149 -9 131 -9 131 405 391 405 391 3 -135 3
-135 -243 -238z m206 -132 l7 -200 -356 -345 c-196 -190 -360 -346 -364 -348
-4 -1 -14 84 -22 189 l-14 192 369 358 c203 198 370 358 371 357 1 -2 5 -93 9
-203z m-872 -110 c-4 -6 -342 -334 -752 -728 -506 -487 -747 -714 -754 -707
-13 13 16 42 839 834 409 393 662 630 667 623 4 -6 4 -16 0 -22z m24 -237 c5
-68 9 -126 9 -130 0 -4 -297 -296 -659 -648 l-660 -641 -73 73 c-40 40 -72 76
-70 81 3 11 1430 1386 1439 1387 3 0 10 -55 14 -122z m894 -87 l0 -149 -362
-351 c-245 -239 -364 -348 -369 -339 -4 7 -10 69 -14 138 l-7 126 371 362
c204 199 374 362 376 362 3 0 5 -67 5 -149z m-856 -381 c7 -85 10 -160 7 -166
-3 -6 -249 -248 -546 -537 l-540 -525 -103 101 c-56 56 -101 107 -100 114 2 7
287 288 633 625 628 611 630 613 633 578 2 -19 9 -105 16 -190z m629 -431
c-104 -101 -252 -246 -329 -322 l-141 -138 -6 58 c-4 32 -9 101 -13 153 l-6
95 338 329 339 328 3 -159 2 -160 -187 -184z m-599 54 c4 -54 9 -116 12 -138
l5 -40 -455 -442 c-250 -244 -459 -443 -464 -443 -16 0 -144 139 -140 152 5
14 1019 1007 1029 1008 4 0 10 -44 13 -97z m836 -106 l0 -154 -337 -327 -338
-327 -6 63 c-4 35 -8 101 -10 148 l-4 85 340 332 c187 183 343 332 348 333 4
0 7 -69 7 -153z m-800 -337 l12 -145 -184 -180 c-100 -99 -263 -259 -361 -355
l-177 -175 -84 85 -84 85 430 418 c237 230 432 416 434 415 1 -2 8 -68 14
-148z m-779 -909 c663 -682 926 -958 932 -980 6 -23 13 -31 30 -31 17 0 100
-79 306 -292 l284 -293 -334 -327 c-184 -181 -350 -341 -369 -357 l-35 -28
-275 283 c-769 792 -736 760 -753 746 -8 -7 -17 -9 -20 -5 -2 4 -71 383 -153
841 -81 457 -151 832 -154 831 -3 0 -2543 -2470 -5645 -5488 -3102 -3019
-5641 -5487 -5643 -5486 -1 1 -11 150 -22 331 -11 181 -22 363 -25 404 l-6 75
175 -3 175 -3 78 67 c640 554 1398 1265 2609 2446 304 295 579 562 613 594 34
31 61 62 61 68 0 29 -57 58 -232 116 l-187 62 107 103 c59 57 1781 1717 3827
3689 2046 1972 3723 3585 3727 3586 3 0 422 -427 929 -949z m1247 197 c-180
-176 -295 -282 -299 -275 -3 7 -12 89 -18 182 -7 94 -14 181 -17 195 -4 23 32
62 308 330 l313 305 3 -225 3 -225 -293 -287z m-433 280 l6 -123 -265 -257
c-145 -142 -268 -258 -273 -258 -14 0 -156 147 -152 157 2 5 153 153 334 330
298 290 331 319 336 298 4 -13 10 -79 14 -147z m773 -323 l-3 -80 -300 -292
-300 -292 -6 43 c-4 23 -10 92 -14 152 l-8 109 309 302 309 301 8 -81 c4 -45
6 -118 5 -162z m-736 -122 l16 -207 -145 -140 c-80 -78 -149 -142 -153 -144
-6 -2 -219 217 -223 231 -3 6 472 467 481 467 5 0 15 -93 24 -207z m-1172
-1797 c176 -983 320 -1797 320 -1807 0 -11 -329 -338 -857 -853 -808 -786
-858 -833 -865 -808 -3 15 -52 403 -109 862 -56 459 -104 836 -105 838 -1 2
-2519 -2394 -5596 -5324 -3076 -2930 -5605 -5338 -5619 -5351 l-26 -24 -547
511 c-302 282 -544 516 -540 522 22 35 13619 13250 13621 13238 2 -8 147 -820
323 -1804z m1870 1500 l0 -183 -256 -248 c-216 -210 -257 -246 -268 -234 -8 9
-18 68 -25 159 l-12 145 278 272 c153 150 279 273 281 273 1 0 2 -83 2 -184z
m-660 -171 c14 -175 17 -164 -61 -226 l-37 -29 -81 83 -80 82 122 123 c67 67
122 122 123 122 1 0 7 -70 14 -155z m658 -403 c-24 -24 -105 -103 -182 -175
l-139 -132 -64 70 -65 70 244 238 243 238 3 -132 3 -133 -43 -44z m-629 49 l1
-35 -30 29 c-36 34 -37 42 -7 73 l22 24 6 -29 c4 -15 7 -43 8 -62z m554 -448
l-78 -72 -53 52 -54 52 129 124 128 124 3 -104 3 -104 -78 -72z m127 -145 l0
-142 -31 30 c-17 16 -49 51 -71 77 l-41 48 64 65 c35 35 67 64 71 64 4 0 8
-64 8 -142z m-1793 -126 l-59 -57 7 95 c4 52 10 99 12 104 3 4 26 -13 52 -38
l46 -46 -58 -58z m141 -189 c-46 -46 -85 -83 -89 -83 -3 0 -13 37 -21 83 l-14
82 50 53 50 52 53 -52 53 -52 -82 -83z m80 -230 c-84 -84 -155 -153 -159 -153
-3 0 -11 37 -19 82 l-13 82 124 117 124 117 48 -46 47 -47 -152 -152z m282 22
l65 -65 -205 -199 c-113 -109 -206 -197 -208 -196 -2 2 -12 51 -22 109 l-20
107 158 154 c86 85 159 154 162 155 3 0 35 -29 70 -65z m198 -208 l72 -72
-290 -283 c-160 -155 -294 -282 -299 -282 -6 0 -46 203 -46 235 0 11 472 475
483 475 4 0 40 -33 80 -73z m195 -195 l58 -58 -336 -328 c-184 -180 -339 -325
-344 -322 -7 5 -36 156 -36 188 0 8 586 578 595 578 3 0 32 -26 63 -58z m154
-507 c-626 -610 -728 -707 -731 -704 -2 2 -16 71 -31 153 l-26 150 48 47 c26
26 201 196 388 378 l340 330 93 -92 94 -92 -175 -170z m-2915 -1101 l4 -36
-1214 -1182 c-668 -649 -1222 -1182 -1231 -1184 -18 -2 -181 41 -184 49 -1 3
274 243 611 533 336 290 690 601 785 690 94 90 408 389 697 664 289 276 526
501 526 502 1 0 4 -16 6 -36z m31 -253 l14 -103 -1077 -1046 c-592 -576 -1086
-1055 -1098 -1066 -21 -18 -23 -18 -104 4 -46 12 -87 25 -91 30 -5 4 519 521
1165 1148 645 628 1174 1140 1175 1138 2 -2 9 -49 16 -105z m82 -315 l18 -138
-109 -108 c-60 -59 -446 -435 -859 -835 -412 -401 -797 -775 -855 -831 l-105
-104 -124 35 c-68 18 -124 35 -126 37 -3 3 2139 2088 2142 2085 0 -1 9 -64 18
-141z m10 -420 l17 -129 -63 -62 c-35 -34 -318 -309 -629 -610 -311 -302 -633
-615 -716 -697 l-150 -149 -138 18 -138 18 898 873 c493 480 898 871 900 869
2 -1 10 -60 19 -131z m81 -302 l10 -85 -695 -678 c-383 -372 -702 -680 -708
-684 -13 -8 -174 32 -172 42 2 13 1542 1502 1548 1496 3 -4 11 -45 17 -91z
m-4 -330 l3 -59 -579 -565 c-438 -428 -584 -564 -599 -562 -11 2 -44 11 -72
20 l-52 17 641 623 c526 511 642 619 647 604 4 -11 9 -46 11 -78z m-8597 -699
c344 -30 715 -88 1125 -176 369 -79 975 -235 979 -252 2 -9 -69 -66 -899 -717
-1146 -898 -1670 -1320 -2227 -1797 l-203 -173 -142 0 c-436 0 -1292 51 -1878
111 -285 29 -1008 115 -1207 144 -368 53 -773 139 -773 164 0 10 288 292 463
453 662 610 1394 1138 2122 1530 644 347 1071 527 1513 638 149 37 354 75 452
83 126 10 522 5 675 -8z m6525 -335 c3 -4 25 -10 50 -14 41 -6 781 -205 788
-211 4 -3 -2716 -2658 -2728 -2663 -4 -1 -19 46 -35 105 -91 352 -227 794
-251 814 -15 12 -57 -27 -368 -343 -527 -535 -1551 -1535 -2181 -2130 -261
-246 -638 -624 -710 -712 l-38 -47 2 -537 c2 -295 4 -560 5 -587 l1 -50 -374
-365 -373 -365 -53 -3 c-41 -2 -1880 80 -2023 91 -32 2 152 178 3758 3613
l3791 3611 367 -100 c202 -55 369 -103 372 -107z m-2157 -2315 c144 -594 243
-1160 293 -1680 22 -224 25 -710 6 -865 -53 -429 -199 -865 -472 -1409 -120
-241 -331 -626 -447 -821 -441 -732 -1085 -1522 -1752 -2147 -135 -126 -166
-151 -174 -138 -14 26 -64 286 -91 476 -38 264 -53 403 -96 920 -72 874 -92
1299 -93 2044 l-2 541 105 119 c116 132 239 283 435 535 408 523 1371 1694
1944 2364 193 225 276 315 281 305 4 -8 33 -117 63 -244z m-5873 -923 c0 -42
36 -665 45 -783 l6 -76 -1078 -1048 c-593 -577 -1153 -1122 -1244 -1212 l-166
-164 -282 262 -282 263 38 37 c21 20 674 649 1451 1398 l1414 1361 49 0 49 0
0 -38z m-1616 -4392 c734 -685 1335 -1248 1335 -1252 1 -8 -1031 -1113 -1040
-1113 -3 0 -635 587 -1403 1304 l-1396 1304 42 46 c23 25 258 277 521 559
l479 512 64 -57 c35 -32 665 -618 1398 -1303z m1473 476 c4 -3 -777 -760 -788
-764 -5 -2 -30 17 -56 41 l-47 45 225 218 c123 120 283 276 354 346 l130 129
90 -7 c50 -4 91 -7 92 -8z m746 -34 c27 -7 0 -34 -554 -547 -320 -297 -586
-542 -591 -543 -9 -4 -123 98 -123 110 0 4 228 229 508 500 l507 493 113 -3
c61 -2 125 -7 140 -10z m-461 -20 l47 -7 -406 -395 c-223 -217 -431 -418 -462
-446 l-57 -52 -68 62 -69 62 403 392 404 392 80 -1 c45 0 102 -4 128 -7z
m1099 -10 c28 -7 -86 -121 -1242 -1241 l-179 -173 -76 74 -76 74 657 640 657
639 116 -3 c65 -2 129 -7 143 -10z m-424 -27 c2 0 -271 -267 -605 -592 l-607
-591 -44 43 -44 43 63 59 c34 32 304 282 599 555 l536 497 50 -6 c28 -3 51 -7
52 -8z m786 -34 c28 -6 -1 -36 -707 -725 -405 -395 -763 -742 -796 -773 l-60
-55 -75 67 c-41 37 -75 71 -75 75 0 5 328 327 728 717 l728 708 115 -3 c62 -2
127 -7 142 -11z m-5319 -830 c19 -21 19 -22 -5 -39 -176 -123 -421 -360 -577
-558 -306 -389 -531 -889 -613 -1361 -28 -165 -31 -386 -5 -483 54 -204 163
-308 366 -346 255 -49 701 51 1152 257 233 106 497 270 708 437 127 102 386
362 489 492 46 58 85 104 88 103 2 -1 37 -33 78 -71 l75 -70 -74 -98 c-488
-654 -1269 -1203 -2101 -1478 -301 -100 -576 -145 -806 -132 -277 16 -407 82
-487 246 -149 306 -80 917 169 1514 284 676 727 1261 1259 1660 l113 85 76
-68 c42 -38 85 -78 95 -90z m541 -667 c132 -127 348 -331 480 -454 132 -122
249 -231 259 -241 19 -17 18 -19 -24 -91 -192 -325 -449 -592 -778 -810 -522
-344 -1127 -509 -1415 -386 -129 56 -186 220 -166 480 53 709 558 1485 1189
1827 l74 40 71 -67 c38 -37 178 -171 310 -298z"/>
<path d="M24400 28086 c-117 -34 -205 -84 -285 -158 -120 -112 -176 -246 -177
-422 0 -89 19 -243 31 -250 6 -4 282 52 288 57 1 2 -5 30 -14 62 -8 33 -16 98
-16 145 -1 107 25 173 90 230 166 146 388 54 464 -191 36 -114 23 -322 -31
-496 -46 -151 -166 -444 -288 -704 l-50 -106 55 -124 c30 -68 57 -126 59 -128
2 -2 249 106 549 239 527 234 546 244 540 267 -15 61 -92 238 -103 236 -6 -2
-179 -78 -384 -169 -205 -91 -379 -168 -386 -171 -7 -3 3 23 23 58 63 111 201
399 250 524 26 66 61 172 77 235 72 282 17 546 -153 725 -110 115 -225 165
-378 164 -59 0 -110 -7 -161 -23z"/>
<path d="M22905 27300 c-82 -49 -151 -93 -153 -99 -2 -7 461 -1860 484 -1932
4 -14 28 -4 134 58 72 42 130 82 130 90 0 7 -30 115 -67 238 -40 137 -63 229
-57 234 5 5 113 70 241 144 l232 136 172 -175 c95 -96 177 -174 182 -174 7 0
261 144 276 156 3 3 -445 448 -1234 1225 l-190 188 -150 -89z m755 -940 c0 -3
-82 -53 -182 -112 -122 -71 -185 -103 -189 -95 -3 7 -59 192 -124 411 -64 220
-119 406 -122 415 -2 9 135 -126 306 -299 171 -173 311 -317 311 -320z"/>
<path d="M21766 26555 c-169 -47 -350 -195 -426 -350 -89 -182 -78 -414 33
-656 111 -244 360 -556 551 -691 279 -196 528 -215 767 -58 94 61 205 178 241
252 84 173 74 370 -31 594 l-41 86 -52 -29 c-29 -17 -88 -49 -130 -72 -43 -24
-78 -47 -78 -52 0 -5 14 -37 31 -70 34 -68 69 -193 69 -247 0 -91 -67 -189
-164 -240 -42 -22 -64 -27 -126 -26 -63 0 -86 5 -140 30 -155 74 -313 234
-487 494 -158 237 -219 426 -179 561 33 115 146 202 261 201 100 -1 185 -43
308 -153 l59 -52 106 107 107 107 -45 40 c-135 121 -258 194 -375 224 -72 18
-192 18 -259 0z"/>
<path d="M20570 25599 c-63 -56 -116 -106 -118 -110 -2 -5 283 -331 633 -725
429 -483 641 -714 651 -710 8 3 63 49 124 103 91 81 107 100 97 112 -21 27
-1208 1365 -1241 1399 l-32 32 -114 -101z"/>
<path d="M20048 25135 l-117 -121 130 -518 c71 -285 128 -520 126 -522 -2 -2
-149 135 -326 304 -178 169 -326 307 -330 307 -3 0 -55 -51 -116 -113 l-109
-112 44 -44 c25 -24 340 -325 701 -669 l656 -625 64 66 c35 37 86 90 112 118
l48 51 -229 219 -230 218 -37 184 c-20 101 -35 187 -33 191 2 5 158 -46 348
-113 190 -67 411 -145 491 -173 l146 -51 117 124 c65 69 116 127 113 130 -2 3
-288 97 -633 210 -346 113 -633 210 -638 214 -5 5 -46 196 -92 426 -46 229
-85 418 -86 419 -2 1 -56 -53 -120 -120z"/>
<path d="M18933 23785 c-119 -33 -224 -108 -310 -222 -169 -223 -188 -470 -53
-720 146 -273 560 -605 890 -713 220 -72 401 -62 561 32 142 83 273 262 315
428 46 181 -28 401 -195 581 l-60 64 -104 -104 -105 -104 63 -77 c128 -158
160 -276 103 -385 -29 -57 -103 -130 -151 -150 -165 -68 -421 32 -737 286
-113 91 -241 222 -292 300 -106 160 -106 313 0 422 103 107 243 112 438 15 46
-23 86 -39 88 -37 11 13 136 247 136 256 0 13 -153 84 -245 113 -91 29 -266
37 -342 15z"/>
<path d="M39952 23271 c-166 -142 -308 -263 -314 -269 -8 -8 2 -26 39 -69 71
-82 276 -341 381 -480 814 -1079 1455 -2306 1867 -3573 550 -1692 718 -3489
494 -5275 -85 -672 -251 -1449 -433 -2020 -19 -60 -32 -112 -28 -116 10 -8
783 -251 787 -247 2 1 30 93 63 203 189 627 338 1320 427 1980 135 1001 151
2070 45 3085 -197 1886 -808 3701 -1798 5345 -238 395 -582 895 -867 1261
-154 199 -347 434 -354 433 -3 0 -142 -117 -309 -258z"/>
<path d="M17720 22164 l-92 -156 64 -66 c35 -37 344 -367 687 -734 343 -368
625 -668 626 -668 2 0 38 59 80 131 l77 132 -176 176 -176 176 141 238 c80
135 147 237 155 237 8 0 112 -29 231 -65 119 -36 222 -65 229 -65 12 0 179
269 172 275 -2 2 -428 123 -948 269 -520 147 -952 269 -961 272 -13 3 -39 -33
-109 -152z m700 -324 c223 -67 408 -125 412 -129 8 -7 -196 -354 -211 -359 -5
-2 -150 137 -322 308 -173 172 -307 310 -299 307 8 -2 197 -59 420 -127z"/>
<path d="M17122 21078 c-34 -78 -59 -145 -55 -149 4 -3 167 -78 361 -165 193
-86 352 -162 352 -167 0 -9 -217 -497 -224 -505 -2 -2 -165 69 -362 157 -196
89 -360 161 -364 161 -4 0 -37 -66 -73 -146 l-66 -145 42 -18 c23 -10 419
-188 881 -395 461 -208 841 -375 843 -372 15 15 130 282 124 288 -4 4 -177 84
-385 178 -209 93 -381 172 -384 175 -4 3 207 487 224 513 1 1 176 -76 390
-172 214 -96 391 -173 395 -171 9 6 132 285 128 290 -9 8 -1743 785 -1754 785
-5 0 -38 -64 -73 -142z"/>
<path d="M17080 19564 c-6 -15 -25 -74 -42 -131 -18 -56 -36 -103 -41 -103 -4
0 -118 57 -253 126 -135 69 -246 125 -248 123 -1 -2 -16 -48 -33 -101 l-31
-98 247 -126 c135 -69 249 -129 252 -132 5 -6 -76 -287 -87 -300 -1 -2 -112
53 -246 122 -135 69 -249 126 -254 126 -8 0 -64 -164 -64 -189 0 -5 111 -67
248 -137 136 -70 248 -128 249 -129 2 -1 -15 -57 -37 -126 -22 -68 -40 -129
-40 -134 0 -8 159 -95 174 -95 2 0 22 59 45 130 23 72 44 130 48 130 16 0 323
-166 323 -175 0 -5 -17 -65 -39 -132 -28 -88 -35 -125 -27 -132 16 -13 154
-81 164 -81 5 0 24 48 42 108 18 59 37 117 41 130 9 23 14 20 272 -112 145
-75 268 -136 274 -136 8 0 63 163 63 189 0 5 -120 71 -267 147 -148 75 -269
137 -269 138 -6 4 92 296 99 296 4 0 127 -61 273 -136 259 -133 264 -135 273
-112 18 49 54 178 50 182 -2 2 -124 65 -271 140 -160 82 -265 142 -263 149 41
127 75 239 75 247 0 5 -40 30 -89 55 -79 39 -90 42 -95 27 -3 -9 -21 -70 -41
-135 l-37 -117 -156 81 c-87 45 -161 86 -166 90 -6 5 6 60 31 139 l41 131 -89
45 -89 44 -10 -26z m364 -704 c8 -8 -69 -275 -85 -293 -8 -10 -328 153 -329
167 0 5 20 74 46 153 l45 144 157 -82 c86 -44 161 -85 166 -89z"/>
<path d="M16662 17563 c-231 -1196 -288 -2470 -167 -3703 173 -1755 710 -3470
1572 -5018 134 -242 347 -597 357 -597 4 0 164 99 356 220 l350 219 -17 26
c-217 329 -608 1064 -812 1527 -533 1211 -862 2475 -980 3768 -36 387 -42 521
-48 970 -11 889 56 1656 218 2484 17 84 29 154 27 156 -4 3 -791 165 -804 165
-5 0 -29 -98 -52 -217z"/>
<path d="M41241 11014 c-122 -284 -220 -519 -217 -521 5 -5 1770 -762 1772
-760 12 15 444 1041 442 1048 -3 10 -229 112 -234 106 -2 -1 -73 -167 -159
-367 -86 -201 -159 -368 -163 -371 -5 -5 -520 207 -549 226 -2 1 53 131 121
291 69 159 124 289 123 290 -16 12 -238 100 -241 96 -2 -4 -56 -131 -121 -282
-64 -151 -120 -278 -124 -282 -5 -5 -486 194 -499 207 -2 2 67 168 154 369 86
202 155 368 153 370 -7 6 -221 96 -229 96 -4 0 -107 -232 -229 -516z"/>
<path d="M40862 10173 c-74 -127 -97 -171 -92 -177 3 -2 266 -154 585 -336
319 -182 584 -335 589 -340 5 -5 -9 -6 -30 -4 -22 3 -338 29 -704 59 -366 30
-688 57 -716 60 l-51 6 -78 -138 c-44 -76 -87 -152 -97 -169 l-18 -31 834
-477 c458 -262 837 -476 842 -476 9 0 134 213 134 228 0 5 -297 179 -660 386
-363 208 -660 378 -660 380 0 1 15 1 33 -1 17 -2 376 -30 797 -63 421 -33 785
-62 810 -65 l46 -5 76 132 c42 73 73 136 70 139 -4 4 -367 213 -807 464 -440
252 -814 466 -832 477 l-32 19 -39 -68z"/>
<path d="M19419 8605 c-27 -14 -360 -367 -1184 -1255 -1166 -1254 -1525 -1648
-1542 -1689 -20 -46 -9 -93 28 -131 38 -37 70 -46 119 -31 30 9 70 45 182 164
318 336 2511 2703 2550 2752 19 25 24 44 26 117 l4 88 -79 0 c-48 -1 -88 -6
-104 -15z"/>
<path d="M39777 8463 c-52 -71 -100 -137 -107 -149 -12 -19 33 -82 595 -823
334 -442 611 -799 615 -794 4 4 46 61 94 126 86 117 86 118 69 140 -10 13 -80
98 -156 190 -79 95 -137 173 -134 181 13 33 330 451 341 448 6 -2 106 -41 221
-87 116 -47 215 -86 222 -87 15 -4 207 253 196 263 -7 6 -1846 719 -1857 719
-2 0 -47 -57 -99 -127z m654 -410 l408 -166 -30 -41 c-17 -23 -74 -100 -127
-173 -53 -73 -101 -131 -107 -129 -5 1 -65 70 -133 152 -368 445 -432 524
-426 524 4 0 191 -75 415 -167z"/>
<path d="M39128 7541 c-102 -40 -174 -104 -467 -419 -135 -146 -245 -267 -243
-271 6 -14 1407 -1311 1413 -1309 4 2 109 113 234 248 295 317 360 403 404
537 73 219 -63 494 -304 614 -122 60 -251 62 -381 4 -31 -14 -58 -25 -60 -25
-2 0 4 19 13 43 10 26 17 75 17 132 1 81 -2 96 -31 158 -59 125 -199 247 -331
287 -83 26 -199 26 -264 1z m177 -335 c105 -49 188 -163 188 -260 0 -83 -41
-150 -196 -316 l-76 -82 -29 24 c-61 51 -372 343 -372 349 0 3 55 63 123 132
170 176 246 208 362 153z m638 -522 c64 -21 163 -113 193 -179 26 -54 31 -125
14 -187 -16 -57 -80 -143 -192 -260 l-103 -108 -220 206 c-121 113 -222 210
-223 215 -6 15 202 232 261 273 100 69 157 77 270 40z"/>
<path d="M38011 6464 c-121 -32 -232 -104 -340 -220 -111 -119 -161 -239 -161
-389 0 -145 44 -254 148 -366 117 -127 289 -187 458 -161 42 7 178 47 303 89
187 63 240 77 306 81 68 4 88 1 127 -18 54 -25 113 -85 136 -139 25 -58 20
-156 -10 -216 -34 -66 -133 -159 -205 -193 -50 -23 -71 -27 -148 -27 -81 0
-97 3 -155 32 -36 17 -79 41 -97 53 l-32 21 -82 -122 c-60 -90 -79 -126 -72
-137 14 -23 161 -100 233 -123 243 -76 481 5 702 240 124 132 182 266 182 426
0 251 -162 471 -399 541 -129 38 -269 18 -539 -77 -314 -111 -411 -115 -497
-22 -48 51 -63 92 -64 169 0 65 3 75 37 126 57 87 176 158 263 158 48 0 145
-28 202 -59 38 -21 55 -26 61 -17 5 6 39 62 76 125 47 81 64 117 56 126 -16
19 -159 83 -225 100 -73 19 -192 18 -264 -1z"/>
<path d="M18685 6275 c-48 -17 -61 -30 -686 -700 -973 -1043 -2016 -2174
-2057 -2229 -31 -43 -42 -88 -42 -183 l0 -83 106 0 c75 0 116 5 139 16 33 15
205 198 1361 1444 1105 1192 1366 1475 1381 1504 20 39 20 114 -1 154 -23 44
-91 92 -130 92 -17 -1 -49 -7 -71 -15z"/>
<path d="M36954 5643 c-66 -47 -125 -91 -132 -98 -11 -10 92 -158 553 -794
390 -537 570 -779 579 -774 7 5 67 48 135 96 84 62 119 92 113 100 -5 7 -253
350 -552 762 -299 413 -551 760 -560 772 l-17 22 -119 -86z"/>
<path d="M22468 5272 c-23 -11 -126 -113 -285 -282 -1022 -1092 -2401 -2584
-2440 -2640 -11 -16 -18 -52 -21 -107 l-5 -83 82 0 c96 0 123 11 177 73 22 24
446 482 944 1018 1314 1413 1680 1810 1701 1844 36 57 18 133 -40 174 -35 25
-64 26 -113 3z"/>
<path d="M36345 5163 c-56 -12 -157 -49 -215 -79 -117 -59 -585 -351 -583
-362 4 -15 971 -1613 987 -1630 11 -11 36 1 137 62 68 42 130 80 138 85 11 7
-29 80 -193 350 -113 187 -206 342 -206 345 0 5 246 156 254 156 3 0 156 -117
340 -260 183 -143 338 -260 343 -260 5 0 76 40 156 89 134 81 145 89 129 103
-9 8 -182 133 -384 277 l-367 261 34 71 c18 38 39 102 46 140 44 247 -151 565
-392 640 -57 18 -171 24 -224 12z m110 -302 c54 -24 130 -109 163 -179 19 -42
27 -78 30 -134 7 -135 -40 -197 -248 -321 -69 -42 -125 -75 -126 -74 -2 3
-316 521 -320 528 -5 8 231 149 295 176 69 28 150 30 206 4z"/>
<path d="M22555 4533 l-228 -347 27 -21 c42 -33 410 -261 603 -374 1760 -1024
3763 -1646 5813 -1805 686 -53 1466 -54 2145 -1 780 61 1533 183 2280 369 471
118 1061 296 1052 319 -2 7 -61 184 -132 395 -80 243 -131 382 -139 379 -6 -2
-99 -32 -206 -65 -999 -314 -1964 -497 -3005 -571 -594 -43 -1357 -39 -1960 9
-2143 173 -4162 857 -5967 2023 l-56 36 -227 -346z"/>
<path d="M20425 4626 c-17 -7 -53 -38 -80 -68 -28 -29 -239 -256 -470 -503
-544 -582 -971 -1042 -1486 -1600 -656 -712 -680 -738 -697 -770 -11 -21 -16
-57 -17 -120 l0 -90 75 -3 c114 -5 136 5 238 111 126 130 1854 1992 2459 2648
189 205 193 212 193 337 l0 72 -92 0 c-54 -1 -106 -6 -123 -14z"/>
<path d="M18573 4510 c-67 -16 -37 15 -764 -765 -1269 -1361 -1999 -2156
-2026 -2207 -20 -36 -23 -56 -23 -161 l0 -119 118 4 c80 3 126 9 147 20 44 23
129 113 1071 1128 1471 1586 1658 1790 1682 1832 19 36 22 56 22 160 l0 118
-97 -1 c-54 -1 -112 -4 -130 -9z"/>
<path d="M34980 4430 c-85 -21 -227 -79 -511 -209 -167 -76 -305 -143 -306
-148 -4 -10 782 -1731 796 -1746 10 -10 599 259 702 320 148 87 242 191 275
302 26 86 24 229 -4 316 -49 147 -155 280 -264 330 -63 28 -170 48 -232 44
l-44 -4 20 25 c107 137 132 250 87 396 -39 130 -107 231 -202 300 -95 70 -215
98 -317 74z m63 -313 c99 -42 181 -215 157 -332 -20 -96 -79 -145 -301 -249
l-117 -54 -111 242 c-61 133 -111 247 -111 252 0 12 210 109 290 135 66 22
149 24 193 6z m383 -728 c95 -45 163 -144 186 -266 18 -98 -20 -184 -112 -257
-40 -32 -347 -183 -355 -174 -8 10 -256 560 -253 563 9 10 260 120 308 136 77
25 172 24 226 -2z"/>
</g>
</svg>
